<svg xmlns="http://www.w3.org/2000/svg" viewBox="0 0 988.5 125" enable-background="new 0 0 988.5 125">
	<title>Colorado State University - responsive signature graphic</title>
	<defs>
		<g id="signatureword">
			<g id="signaturetop">

			<path d="m 159.1 42.2 h -12.8 c -5.7 0 -8.8 2.8 -8.8 8 v 22.6 c 0 5.2 3.1 8 8.8 8 h 12.8 c 5.7 0 8.8 -2.8 8.8 -8 v -6 h -8.5 v 5.6 c 0 0.5 -0.1 1.1 -1.4 1.1 h -10.8 c -1.1 0 -1.3 -0.5 -1.3 -1.1 v -21.8 c 0 -0.6 0.2 -1.1 1.3 -1.1 h 10.8 c 1.3 0 1.4 0.6 1.4 1.1 v 5.6 h 8.5 v -6 c 0 -5.1 -3.2 -8 -8.8 -8"/><path d="m 198.4 42.2 h -13.5 c -5.7 0 -8.8 2.8 -8.8 8 v 22.6 c 0 5.2 3.1 8 8.8 8 h 13.5 c 5.7 0 8.8 -2.8 8.8 -8 v -22.6 c 0 -5.1 -3.2 -8 -8.8 -8 m 0.3 8.4 v 21.9 c 0 0.5 -0.1 1.1 -1.4 1.1 h -11.5 c -1.1 0 -1.3 -0.5 -1.3 -1.1 v -21.9 c 0 -0.6 0.2 -1.1 1.3 -1.1 h 11.5 c 1.3 0 1.4 0.5 1.4 1.1"/><path d="m 223.9 42.2 h -8.5 v 38.6 h 26.5 v -7.3 h -18 Z"/><path d="m 270.8 42.2 h -13.5 c -5.7 0 -8.8 2.8 -8.8 8 v 22.6 c 0 5.2 3.1 8 8.8 8 h 13.5 c 5.7 0 8.8 -2.8 8.8 -8 v -22.6 c 0 -5.1 -3.1 -8 -8.8 -8 m 0.3 8.4 v 21.9 c 0 0.5 -0.1 1.1 -1.4 1.1 h -11.5 c -1.1 0 -1.3 -0.5 -1.3 -1.1 v -21.9 c 0 -0.6 0.2 -1.1 1.3 -1.1 h 11.5 c 1.3 0 1.4 0.5 1.4 1.1"/><path d="m 317.9 58.5 v -8.3 c 0 -5.2 -3.1 -8 -8.8 -8 h -21.3 v 38.6 h 8.5 v -14.3 h 6.8 l 7.4 14.3 h 9.3 l -7.6 -14.6 c 3.7 -0.9 5.7 -3.6 5.7 -7.7 m -21.6 -9.1 h 11.9 c 1.1 0 1.3 0.5 1.3 1.1 v 7.8 c 0 0.6 -0.2 1.1 -1.3 1.1 h -11.9 v -10"/><path d="m 339.2 42.2 l -14.2 38.6 h 8.9 l 3.1 -9.1 h 13.3 l 3.1 9.1 h 9.3 l -14.2 -38.6 h -9.3 m 8.7 22.2 h -8.5 l 4.2 -12.6 l 4.3 12.6"/><path d="m 391 42.2 h -21.8 v 38.6 h 21.8 c 5.7 0 8.8 -2.8 8.8 -8 v -22.6 c 0 -5.1 -3.1 -8 -8.8 -8 m -13.2 7.3 h 12.3 c 1.1 0 1.3 0.5 1.3 1.1 v 21.9 c 0 0.6 -0.2 1.1 -1.3 1.1 h -12.3 v -24.1"/><path d="m 430.2 42.2 h -13.5 c -5.7 0 -8.8 2.8 -8.8 8 v 22.6 c 0 5.2 3.1 8 8.8 8 h 13.5 c 5.7 0 8.8 -2.8 8.8 -8 v -22.6 c 0 -5.1 -3.1 -8 -8.8 -8 m 0.4 8.4 v 21.9 c 0 0.6 -0.2 1.1 -1.4 1.1 h -11.5 c -1.1 0 -1.3 -0.5 -1.3 -1.1 v -21.9 c 0 -0.6 0.2 -1.1 1.3 -1.1 h 11.5 c 1.3 0 1.4 0.5 1.4 1.1"/><path d="m 481.7 58.7 l -10.6 -2.1 c -1.9 -0.4 -2 -0.8 -2 -1.8 v -4.3 c 0 -0.5 0.1 -1.1 1.4 -1.1 h 9.9 c 1.1 0 1.3 0.5 1.3 1.1 v 4.5 h 8.4 v -4.7 c 0 -5.2 -3.1 -8 -8.8 -8 h -11.8 c -5.7 0 -8.8 2.8 -8.8 8 v 5.4 c 0 5.6 4.3 7.3 8.9 8.2 l 10.6 2.2 c 1.8 0.4 2 0.7 2 1.7 v 4.8 c 0 0.7 -0.2 1.1 -1.3 1.1 h -10.7 c -1.1 0 -1.3 -0.5 -1.3 -1.1 v -4.9 h -8.4 v 5.1 c 0 5.2 3.1 8 8.8 8 h 12.5 c 5.7 0 8.8 -2.8 8.8 -8 v -6 c 0 -5.6 -4.3 -7.2 -8.9 -8.1"/><path d="m 527.4 42.2 h -31 v 7.2 h 11.3 v 31.4 h 8.5 v -31.4 h 11.2 Z"/><path d="m 540.4 42.2 l -14.2 38.6 h 8.9 l 3.1 -9.1 h 13.3 l 3.1 9.1 h 9.3 l -14.2 -38.6 h -9.3 m 8.7 22.2 h -8.5 l 4.2 -12.6 l 4.3 12.6"/><path d="m 562.6 49.4 h 11.3 v 31.4 h 8.4 v -31.4 h 11.3 v -7.2 h -31 Z"/><path d="m 599.5 80.8 h 27.9 v -7.3 h -19.4 v -8.8 h 16 v -7.2 h -16 v -8 h 19.4 v -7.3 h -27.9 Z"/>
		</g>
		<g id="signaturebottom">
			<path d="m 672 72.4 c 0 0.6 -0.2 1.1 -1.3 1.1 h -11.3 c -1.2 0 -1.4 -0.5 -1.4 -1.1 v -30.2 h -8.5 v 30.6 c 0 5.2 3.1 8 8.8 8 h 13.3 c 5.7 0 8.8 -2.8 8.8 -8 v -30.6 h -8.4 v 30.2"/><path d="m 713.2 66.9 l -16 -24.7 h -8.5 v 38.6 h 8.1 v -25.4 l 16.5 25.4 h 8 v -38.6 h -8.1 Z"/><path d="m 729.5 42.2 h 8.5 v 38.6 h -8.5 Z"/><path d="m 762.7 70.5 l -8.8 -28.3 h -9.2 l 13.4 38.6 h 9.1 l 13.4 -38.6 h -9 Z"/><path d="m 787.1 80.8 h 28 v -7.3 h -19.5 v -8.8 h 16.1 v -7.2 h -16.1 v -8 h 19.5 v -7.3 h -28 Z"/><path d="m 853.1 58.5 v -8.3 c 0 -5.2 -3.1 -8 -8.8 -8 h -21.3 v 38.6 h 8.5 v -14.3 h 6.8 l 7.4 14.3 h 9.3 l -7.6 -14.6 c 3.6 -0.9 5.7 -3.6 5.7 -7.7 m -21.7 -9.1 h 11.9 c 1.1 0 1.3 0.5 1.3 1.1 v 7.8 c 0 0.6 -0.2 1.1 -1.3 1.1 h -11.9 v -10"/><path d="m 882 58.7 l -10.6 -2.1 c -1.9 -0.4 -2 -0.8 -2 -1.8 v -4.3 c 0 -0.5 0.1 -1.1 1.4 -1.1 h 9.9 c 1.1 0 1.3 0.5 1.3 1.1 v 4.5 h 8.4 v -4.7 c 0 -5.2 -3.1 -8 -8.8 -8 h -11.8 c -5.7 0 -8.8 2.8 -8.8 8 v 5.4 c 0 5.6 4.3 7.3 8.9 8.2 l 10.6 2.2 c 1.8 0.4 2 0.7 2 1.7 v 4.8 c 0 0.7 -0.2 1.1 -1.3 1.1 h -10.7 c -1.1 0 -1.3 -0.5 -1.3 -1.1 v -4.9 h -8.4 v 5.1 c 0 5.2 3.1 8 8.8 8 h 12.5 c 5.7 0 8.8 -2.8 8.8 -8 v -6 c 0 -5.6 -4.3 -7.2 -8.9 -8.1"/><path d="m 898.8 42.2 h 8.5 v 38.6 h -8.5 Z"/><path d="m 913.2 49.4 h 11.2 v 31.4 h 8.5 v -31.4 h 11.2 v -7.2 h -30.9 Z"/><path d="m 974.3 42.2 l -9 16.8 l -9 -16.8 h -9.3 l 14 25.1 v 13.5 h 8.5 v -13.5 l 14 -25.1 Z"/>
		</g>
	</g></defs>
	<g id="signaturehead">
		<g fill="#cbc46e"><path d="m 62.5 117.6 c -30.4 0 -55.1 -24.7 -55.1 -55.1 c 0 -30.4 24.7 -55.1 55.1 -55.1 c 30.4 0 55.1 24.7 55.1 55.1 c 0 30.4 -24.7 55.1 -55.1 55.1"/><path d="M 62.5 120 C 30.8 120 5 94.2 5 62.5 C 5 30.8 30.8 5 62.5 5 C 94.2 5 120 30.8 120 62.5 C 120 94.2 94.2 120 62.5 120 Z"/></g><path fill="#004c23" d="m 62.5 7.4 c -30.4 0 -55.1 24.7 -55.1 55.1 c 0 30.4 24.7 55.1 55.1 55.1 c 30.4 0 55.1 -24.7 55.1 -55.1 c 0 -30.4 -24.7 -55.1 -55.1 -55.1"/>
		<g fill="#fff"><path d="m 53.8 75.5 c 1.5 -2.3 3.1 -7.5 2.2 -9.6 c -1.5 -0.6 -3.3 -1.8 -4.4 -3.4 c -1.1 -1.6 -1.7 -3.3 -3.6 -3.8 c -1.3 -0.5 -2.7 -0.2 -3.7 0.4 c -1.7 1 -2.1 3.3 -2.3 5.1 c -0.1 3.8 0.6 9.3 2.2 12.8 c 1 2.6 3.2 6.9 6 11 c -0.8 -6.5 2.8 -10.8 3.6 -12.5 m -4.9 -8.3 c -0.7 -1.3 -2.6 -1 -3.5 -1.6 c -1.4 -0.9 -1.4 -2.9 0 -4.2 c 1.8 -1.6 6.3 3.5 5.3 7.6 c -0.5 0.1 -0.7 -0.1 -1.8 -1.8"/><path d="m 39.3 51.5 c -2 0.3 -2.3 3.2 -0.9 5 c -1.4 -0.2 -3.4 -2 -8.3 -0.5 c -1.7 0.5 -3.6 1.2 -3.8 3.4 c -0.2 1.6 2 3.3 3.4 4.3 c 1.4 1.1 3.7 1.2 4.8 2.9 c 1 1.5 1.7 3.8 2 5.8 c 0.4 4 0.4 8.9 3.1 12.2 c 0.5 -1.9 -0.9 -6.3 -0.9 -11.9 c 0 -2.1 -0.8 -4.5 -2.1 -6 c 2.3 -0.2 2.3 0.1 2.5 -0.6 c 0.2 -0.7 -0.2 -1.5 -0.7 -2.1 c -1.6 -1.9 -4 -0.9 -6.1 -1.6 c -1.4 -0.5 -3.5 -1.2 -3.6 -3.1 c -0.1 -1.3 4 -1.6 4 -1.6 c 3.3 0.3 2.9 2.1 5.2 2.3 c 1.9 0.2 2.6 -1.8 3.2 -3 c 1 -2.1 2 -6.1 -1.8 -5.5"/><path d="m 62.6 72.1 c 0 0 0 0 0 0 c -1.9 0 -2.8 1.5 -4.5 3.3 c -2.9 3.1 -8.8 10.9 -4.5 14.6 c 1.9 1.6 4.4 2.8 7.8 1.7 c 0.9 -0.6 0.4 -2.3 -0.1 -3.1 c -1.6 -2.1 -4.1 -1.3 -4.8 -2.3 c -0.7 -1 -0.2 -1.8 0.2 -2.3 c 0.6 -0.7 1.6 -0.6 2.4 -0.3 c 1.5 0.3 2.4 0.9 3.4 1.8 v 0.1 c 0 0 0 0 0 0 v -0.1 c 0.9 -0.9 1.9 -1.5 3.4 -1.8 c 0.8 -0.2 1.8 -0.4 2.3 0.3 c 0.4 0.5 0.9 1.3 0.2 2.3 c -0.7 1 -3.2 0.2 -4.8 2.3 c -0.4 0.8 -1 2.5 -0.1 3.1 c 3.5 1 5.9 -0.1 7.8 -1.7 c 4.3 -3.7 -1.6 -11.5 -4.5 -14.6 c -1.4 -1.8 -2.4 -3.3 -4.2 -3.3"/><path d="m 95.4 55.9 c -4.8 -1.5 -6.9 0.4 -8.3 0.5 c 1.5 -1.7 1.2 -4.7 -0.9 -5 c -3.8 -0.6 -2.7 3.5 -1.8 5.4 c 0.6 1.2 1.3 3.2 3.2 3 c 2.3 -0.2 1.9 -2 5.2 -2.3 c 0 0 4.1 0.3 4 1.6 c -0.2 1.9 -2.3 2.6 -3.7 3.1 c -2 0.7 -4.4 -0.3 -6.1 1.6 c -0.5 0.6 -0.9 1.4 -0.7 2.1 c 0.2 0.7 0.3 0.4 2.5 0.6 c -1.3 1.6 -2 4 -2 6 c -0.1 5.6 -1.5 10 -0.9 11.9 c 2.7 -3.3 2.7 -8.2 3.1 -12.2 c 0.3 -2.1 1 -4.3 2 -5.8 c 1.2 -1.8 3.4 -1.8 4.8 -2.9 c 1.4 -1 3.5 -2.7 3.4 -4.3 c -0.3 -2.1 -2.2 -2.7 -3.8 -3.3"/><path d="m 62.5 10.4 c -28.7 0 -52.1 23.4 -52.1 52.1 c 0 28.7 23.4 52.1 52.1 52.1 c 28.7 0 52.1 -23.4 52.1 -52.1 c 0 -28.7 -23.4 -52.1 -52.1 -52.1 m 30.8 90.8 c 0 0 0 0 0 0 m 1.9 -2.6 c -1.6 0.6 -3.2 0.9 -4.9 0.1 c -1.3 -0.6 -2.1 -1.8 -2.3 -3.2 c -0.3 -2.1 0.9 -4.5 1.9 -6.2 c 1.4 -2.3 4.6 -6.4 8.3 -9.2 c 5.2 -3.9 8.9 -5 7.5 -5.8 c -0.9 -0.6 -5.9 2.1 -6.9 2.6 c -5.6 2.9 -13.3 11.2 -14.2 17.3 c -0.7 4.4 4 7.7 7.7 7.2 c -12.1 9.9 -25.4 10.3 -29.9 10.4 c -4.4 -0.1 -17.8 -0.4 -29.9 -10.4 c 3.7 0.5 8.4 -2.8 7.7 -7.2 c -0.9 -6.2 -8.6 -14.5 -14.1 -17.3 c -1 -0.5 -5.9 -3.2 -6.9 -2.6 c -1.4 0.9 2.3 2 7.5 5.8 c 3.7 2.7 6.9 6.8 8.2 9.2 c 1.1 1.6 2.2 4.1 1.9 6.2 c -0.2 1.4 -1.1 2.7 -2.3 3.2 c -1.6 0.7 -3.3 0.5 -4.9 -0.1 c -2.5 -0.9 -4.5 -2.8 -6.2 -5.2 c -3.3 -4.4 -6.5 -9.5 -8.1 -14.9 c 1.4 3.1 10.2 16 14.1 16.2 c 4 0.2 -3.9 -10.5 -9.4 -15 c -1.3 -1.1 -2.8 -2.3 -3.1 -4.4 c -0.2 -1.5 0.5 -2.4 2 -2.5 c 2.2 -0.1 7.9 2.9 7.9 2.8 c -9.9 -17.7 5.2 -26.6 -1 -30.5 c -2.2 -1.4 -6.8 0 -9.3 0.4 c 23.2 -13.7 27.3 0 34.3 6.3 c 1.1 1 6 0 7 -1.2 c 1.2 -1.5 3.7 -6.9 0.9 -10.4 c -4 -5 -20.1 -19.5 -35.1 -7.8 c 7.8 -11.4 24.2 -19.6 38.9 -19.1 c 14.6 -0.4 31 7.8 38.8 19.1 c -15.1 -11.7 -31.1 2.8 -35.1 7.8 c -2.8 3.5 -0.3 8.9 0.9 10.4 c 1 1.2 5.9 2.2 7 1.2 c 7 -6.3 11.1 -20 34.3 -6.3 c -2.5 -0.4 -7.2 -1.8 -9.3 -0.4 c -6.3 3.9 8.8 12.8 -1 30.5 c 0.1 0.1 5.8 -2.8 7.9 -2.8 c 1.4 0.1 2.2 1 2 2.5 c -0.3 2 -1.8 3.3 -3.1 4.4 c -5.5 4.5 -13.4 15.2 -9.4 15 c 3.9 -0.2 12.8 -13.1 14.1 -16.2 c -1.6 5.4 -4.9 10.5 -8.1 14.9 c -1.8 2.4 -3.8 4.3 -6.3 5.2"/><path d="m 80.6 59 c -1 -0.6 -2.5 -0.8 -3.7 -0.4 c -1.9 0.5 -2.5 2.3 -3.6 3.8 c -1.1 1.6 -2.9 2.8 -4.4 3.4 c -0.9 2.2 0.7 7.3 2.2 9.6 c 0.9 1.8 4.4 6 3.6 12.4 c 2.8 -4.1 5 -8.4 6 -11 c 1.6 -3.5 2.4 -9.1 2.2 -12.8 c -0.1 -1.7 -0.6 -4 -2.3 -5 m -1 6.6 c -0.9 0.5 -2.8 0.3 -3.5 1.6 c -1 1.7 -1.3 2 -1.7 1.8 c -1 -4 3.5 -9.2 5.3 -7.6 c 1.3 1.2 1.4 3.3 -0.1 4.2"/><path d="m 68.2 92.7 c -1.9 0.2 -4 0.6 -5.6 0.6 c -1.7 0 -3.8 -0.4 -5.6 -0.6 c -0.3 0 -0.5 0.2 -0.5 0.2 c -1.1 2.4 5.2 3.7 6.1 3.6 c 0.9 0 7.3 -1.3 6.2 -3.6 c 0 0 -0.3 -0.2 -0.6 -0.2"/></g>
	</g>
	<g id="signaturewordMD" fill="#004c23" transform="translate(10 5) scale(0.71)">
		<use transform="translate(43 -9)" xmlns:xlink="http://www.w3.org/1999/xlink" xlink:href="#signaturetop"/>
		<use transform="translate(-469 48)" xmlns:xlink="http://www.w3.org/1999/xlink" xlink:href="#signaturebottom"/>
	</g>
	<g id="signaturewordLG" fill="#004c23">
		<use xmlns:xlink="http://www.w3.org/1999/xlink" xlink:href="#signaturetop"/>
		<use xmlns:xlink="http://www.w3.org/1999/xlink" xlink:href="#signaturebottom"/>
	</g>

	<g id="signaturecsu" fill="#004c23"><path d="m 178.6 25.2 h -22.2 c -9.8 0 -15.3 4.9 -15.3 13.9 v 39.2 c 0 8.9 5.4 13.9 15.3 13.9 h 22.2 c 9.8 0 15.3 -4.9 15.3 -13.9 v -10.5 h -14.7 v 9.8 c 0 0.9 -0.2 1.9 -2.4 1.9 h -18.7 c -2 0 -2.3 -0.9 -2.3 -1.9 v -37.9 c 0 -1 0.3 -1.9 2.3 -1.9 h 18.7 c 2.2 0 2.4 1 2.4 1.9 v 9.8 h 14.7 v -10.5 c -0.1 -8.9 -5.5 -13.8 -15.3 -13.8"/><path d="m 240.4 53.7 l -18.4 -3.7 c -3.3 -0.7 -3.5 -1.3 -3.5 -3.1 v -7.5 c 0 -1 0.2 -2 2.4 -2 h 17.1 c 1.9 0 2.3 0.8 2.3 2 v 7.7 h 14.5 v -8.1 c 0 -8.9 -5.4 -13.9 -15.3 -13.9 h -20.5 c -9.8 0 -15.3 4.9 -15.3 13.9 v 9.4 c 0 9.7 7.4 12.6 15.4 14.2 l 18.4 3.7 c 3.2 0.7 3.5 1.2 3.5 3 v 8.4 c 0 1.2 -0.4 2 -2.3 2 h -18.5 c -1.9 0 -2.3 -0.8 -2.3 -2 v -8.4 h -14.5 v 8.9 c 0 8.9 5.4 13.9 15.3 13.9 h 21.7 c 9.8 0 15.3 -4.9 15.3 -13.9 v -10.3 c 0.1 -10.3 -7.9 -12.7 -15.3 -14.2"/><path d="m 303.7 25.2 v 52.4 c 0 1 -0.3 1.9 -2.3 1.9 h -19.6 c -2.2 0 -2.3 -1 -2.3 -1.9 v -52.4 h -14.7 v 53 c 0 8.9 5.4 13.9 15.3 13.9 h 23 c 9.8 0 15.3 -4.9 15.3 -13.9 v -53 h -14.7"/>
	</g>
</svg>